<?xml version="1.0" standalone="no"?>
<!DOCTYPE svg PUBLIC "-//W3C//DTD SVG 20010904//EN"
 "http://www.w3.org/TR/2001/REC-SVG-20010904/DTD/svg10.dtd">
<svg version="1.0" xmlns="http://www.w3.org/2000/svg"
 width="512.000000pt" height="512.000000pt" viewBox="0 0 512.000000 512.000000"
 preserveAspectRatio="xMidYMid meet">
<metadata>
Created by potrace 1.14, written by Peter Selinger 2001-2017
</metadata>
<g transform="translate(0.000000,512.000000) scale(0.100000,-0.100000)"
fill="#000000" stroke="none">
<path d="M2745 4902 c-22 -4 -476 -450 -505 -495 -21 -33 -13 -85 17 -119 52
-59 449 -455 470 -469 73 -48 180 40 151 124 -6 15 -67 86 -137 156 -69 71
-134 138 -145 149 l-18 21 68 -4 c210 -14 384 -53 561 -126 643 -265 1058
-886 1057 -1579 0 -95 -9 -219 -19 -275 -29 -160 -67 -284 -130 -425 -99 -225
-264 -442 -468 -618 -40 -34 -50 -50 -54 -82 -10 -69 35 -120 105 -120 87 0
381 310 516 544 74 127 176 365 190 440 3 14 7 29 10 34 7 12 43 195 53 267
10 76 10 380 0 465 -30 254 -134 554 -265 768 -104 169 -305 395 -457 513
-300 234 -675 379 -1045 404 -46 3 -86 7 -87 9 -1 1 54 58 124 126 69 69 131
138 138 155 31 78 -41 154 -130 137z"/>
<path d="M1364 4061 c-17 -10 -75 -61 -129 -112 -323 -309 -528 -717 -582
-1159 -10 -80 -10 -364 -1 -445 34 -287 128 -557 280 -805 49 -80 168 -231
248 -314 321 -334 789 -553 1239 -580 46 -3 85 -7 87 -9 2 -2 -45 -51 -104
-109 -59 -58 -120 -120 -135 -137 -74 -89 21 -218 120 -164 18 10 137 121 263
248 239 238 256 262 237 317 -13 40 -485 514 -517 520 -85 15 -156 -64 -125
-139 7 -17 74 -93 149 -168 75 -76 136 -141 136 -145 0 -14 -176 1 -294 25
-111 22 -115 23 -185 46 -527 172 -925 560 -1105 1078 -20 57 -38 115 -41 130
-3 14 -7 37 -10 51 -31 144 -38 209 -39 360 -1 208 22 351 84 540 95 289 274
563 491 749 85 73 98 92 98 141 1 81 -91 126 -165 81z"/>
<path d="M2083 3450 c-59 -13 -110 -57 -144 -122 -18 -34 -19 -71 -19 -763 0
-700 0 -728 19 -771 51 -115 181 -160 296 -101 22 11 200 112 395 225 195 113
456 263 580 335 246 141 252 146 285 197 50 79 40 180 -24 250 -26 28 -201
134 -616 373 -319 184 -598 344 -621 355 -47 24 -105 32 -151 22z"/>
</g>
</svg>
